<?xml version="1.0" encoding="utf-8"?>
<!-- Generator: Adobe Illustrator 24.2.0, SVG Export Plug-In . SVG Version: 6.00 Build 0)  -->
<svg version="1.1" xmlns="http://www.w3.org/2000/svg" xmlns:xlink="http://www.w3.org/1999/xlink" x="0px" y="0px"
	 viewBox="0 0 1280 1280" style="enable-background:new 0 0 1280 1280;" xml:space="preserve">
<style type="text/css">
	.st0{fill:none;}
	.st1{fill:#FFFFFF;}
</style>
<g id="Layer_2">
	<rect x="1260" y="-1280" width="1280" height="1280"/>
</g>
<g id="Layer_1">
	<polygon points="736.43,811.2 668.79,911.6 561.59,913.22 681.98,734.52 682.58,734.93 681.53,735.69 	"/>
	<polygon points="664.85,445.6 613.45,525.44 365.79,910.02 261.79,910.02 261.32,909.72 558.78,447.79 606.61,373.51 
		611.62,369.98 	"/>
	<polygon points="730.58,538.96 679.18,618.8 613.45,525.44 558.78,447.79 606.61,373.51 611.62,369.98 664.85,445.6 	"/>
	<polygon points="991.79,910.02 884.18,910.02 718.85,675.17 790.8,624.52 	"/>
	<polygon points="1018.68,370.62 792.68,721.59 718.69,673.95 914.43,369.98 1017.69,369.98 	"/>
	<polygon points="736.43,811.2 668.79,911.6 561.59,913.22 681.98,734.52 682.58,734.93 681.53,735.69 	"/>
	<polygon points="664.85,445.6 613.45,525.44 365.79,910.02 261.79,910.02 261.32,909.72 558.78,447.79 606.61,373.51 
		611.62,369.98 	"/>
	<polygon points="730.58,538.96 679.18,618.8 613.45,525.44 558.78,447.79 606.61,373.51 611.62,369.98 664.85,445.6 	"/>
	<polygon points="991.79,910.02 884.18,910.02 718.85,675.17 790.8,624.52 	"/>
	<polygon points="1018.68,370.62 792.68,721.59 718.69,673.95 914.43,369.98 1017.69,369.98 	"/>
</g>
</svg>
